# xmcd
#
# Track frame offsets: 
#        150
#        17341
#        32090
#        44764
#        58645
#        76235
#        91222
#        111266
#        125359
#        144516
#        163006
#        177564
#        196338
#        215559
#        230303
#        241468
#        257217
#        270175
#        284213
#        299990
#
# Disc length: 4215 seconds
#
# Revision: 0
# Processed by: cddbd v1.5.2PL0 Copyright (c) Steve Scherf et al.
# Submitted via: ExactAudioCopy v1.1
#
DISCID=30107514
DTITLE=Various Artist - Summer Hits - CD 1
DYEAR=2018
DGENRE=Pop
TTITLE0=The Underdog Project Vs. Sunclub - Summer Jam 2003
TTITLE1=Lucenzo Feat. Don Omar - Danza Kuduro
TTITLE2=Bellini - Samba De Janeiro
TTITLE3=Safri Duo - Played-A-Live (The Bongo Song)
TTITLE4=Bob Marley Vs. Funkstar De Luxe - Sun Is Shining
TTITLE5=Gusttavo Lima - Balada (Tchê Tcherere Tchê Tchê)
TTITLE6=Elvis Crespo - Suavemente
TTITLE7=Righeira - Vamos A La Playa
TTITLE8=Gloria Estefan - Conga
TTITLE9=Zucchero - Baila Sexy Thing
TTITLE10=Peter Allen - I Go To Rio
TTITLE11=Ini Kamoze - Here Comes The Hotstepper
TTITLE12=Laid Back - Sunshine Reggae
TTITLE13=C.J. Lewis - Sweets For My Sweet
TTITLE14=Paco Paco - Taka Takata
TTITLE15=Mungo Jerry - In The Summertime
TTITLE16=Los Lobos - La Bamba
TTITLE17=Sophia George - Girlie Girlie
TTITLE18=Outlandish - Aicha
TTITLE19=Shabba Ranks Feat. Chevelle Franklyn - Mr. Loverman
EXTD=
EXTT0=
EXTT1=
EXTT2=
EXTT3=
EXTT4=
EXTT5=
EXTT6=
EXTT7=
EXTT8=
EXTT9=
EXTT10=
EXTT11=
EXTT12=
EXTT13=
EXTT14=
EXTT15=
EXTT16=
EXTT17=
EXTT18=
EXTT19=
PLAYORDER=
